# xmcd CD database file
#
# Track frame offsets:
#	150
#	24060
#	54725
#
# Disc length: 1045 seconds
#
# Revision: 0
# Processed by: cddbd v1.5PL3 Copyright (c) Steve Scherf et al.
# Submitted via: CDex 1.51
#
DISCID=19041303
DTITLE=布袋寅泰 - CHANGE YOUR SELF!
DYEAR=1900
DGENRE=J-rock
TTITLE0=CHANGE YOUR SELF!
TTITLE1=SAVE ME
TTITLE2=CHANGE YOUR SELF! INSTRUMENTAL
EXTD=
EXTT0=
EXTT1=
EXTT2=
PLAYORDER=
